<svg width="25" height="24" viewBox="0 0 25 24" fill="none" xmlns="http://www.w3.org/2000/svg">
<g clip-path="url(#clip0_678_1129)">
<path d="M24.46 12C24.46 5.37262 19.0873 0 12.46 0C5.83259 0 0.459961 5.37253 0.459961 12C0.459961 17.9895 4.84821 22.954 10.585 23.8542V15.4688H7.53809V12H10.585V9.35625C10.585 6.34875 12.3765 4.6875 15.1175 4.6875C16.4305 4.6875 17.8037 4.92188 17.8037 4.92188V7.875H16.2906C14.7998 7.875 14.335 8.80003 14.335 9.74906V12H17.6631L17.1311 15.4688H14.335V23.8542C20.0717 22.954 24.46 17.9896 24.46 12Z" fill="#1877F2"/>
<path d="M17.1311 15.4688L17.6631 12H14.335V9.74906C14.335 8.79994 14.7999 7.875 16.2906 7.875H17.8037V4.92188C17.8037 4.92188 16.4305 4.6875 15.1175 4.6875C12.3765 4.6875 10.585 6.34875 10.585 9.35625V12H7.53809V15.4688H10.585V23.8542C11.2052 23.9514 11.8321 24.0002 12.46 24C13.0878 24.0002 13.7147 23.9514 14.335 23.8542V15.4688H17.1311Z" fill="white"/>
</g>
<defs>
<clipPath id="clip0_678_1129">
<rect width="24" height="24" fill="white" transform="translate(0.459961)"/>
</clipPath>
</defs>
</svg>
