<svg width="24" height="24" viewBox="0 0 24 24" fill="none" xmlns="http://www.w3.org/2000/svg">
<g clip-path="url(#clip0_678_1112)">
<path d="M23.444 12.2245C23.444 11.2413 23.3642 10.5237 23.1915 9.77963H11.9636V14.2176H18.5541C18.4213 15.3205 17.7038 16.9815 16.1092 18.0976L16.0869 18.2461L19.637 20.9963L19.8829 21.0209C22.1418 18.9347 23.444 15.8653 23.444 12.2245Z" fill="#4285F4"/>
<path d="M11.9636 23.9176C15.1924 23.9176 17.9031 22.8545 19.883 21.0209L16.1093 18.0976C15.0994 18.8018 13.7441 19.2934 11.9636 19.2934C8.80119 19.2934 6.11713 17.2074 5.16033 14.324L5.02009 14.3359L1.32867 17.1927L1.2804 17.3269C3.24693 21.2334 7.28635 23.9176 11.9636 23.9176Z" fill="#34A853"/>
<path d="M5.16033 14.324C4.90788 13.5799 4.76177 12.7826 4.76177 11.9588C4.76177 11.1349 4.90788 10.3377 5.14705 9.5936L5.14036 9.43513L1.40268 6.53241L1.28039 6.59058C0.469891 8.21168 0.00482178 10.0321 0.00482178 11.9588C0.00482178 13.8855 0.469891 15.7058 1.28039 17.3269L5.16033 14.324Z" fill="#FBBC05"/>
<path d="M11.9636 4.62403C14.2092 4.62403 15.7239 5.59402 16.5876 6.40461L19.9627 3.10928C17.8899 1.1826 15.1924 0 11.9636 0C7.28635 0 3.24693 2.68406 1.2804 6.59056L5.14705 9.59359C6.11713 6.7102 8.80119 4.62403 11.9636 4.62403Z" fill="#EB4335"/>
</g>
<defs>
<clipPath id="clip0_678_1112">
<rect width="23.46" height="24" fill="white"/>
</clipPath>
</defs>
</svg>
