<svg width="16" height="17" viewBox="0 0 16 17" fill="none" xmlns="http://www.w3.org/2000/svg">
<path opacity="0.4" d="M7.33333 1.83325H5.99999C2.66666 1.83325 1.33333 3.16659 1.33333 6.49992V10.4999C1.33333 13.8333 2.66666 15.1666 5.99999 15.1666H9.99999C13.3333 15.1666 14.6667 13.8333 14.6667 10.4999V9.16658" stroke="#3992CC" stroke-linecap="round" stroke-linejoin="round"/>
<path d="M10.6933 2.51326L5.44 7.76659C5.24 7.96659 5.04 8.35992 5 8.64659L4.71333 10.6533C4.60666 11.3799 5.12 11.8866 5.84666 11.7866L7.85333 11.4999C8.13333 11.4599 8.52666 11.2599 8.73333 11.0599L13.9867 5.80659C14.8933 4.89992 15.32 3.84659 13.9867 2.51326C12.6533 1.17992 11.6 1.60659 10.6933 2.51326Z" stroke="#3992CC" stroke-miterlimit="10" stroke-linecap="round" stroke-linejoin="round"/>
<path opacity="0.4" d="M9.94 3.2666C10.3867 4.85993 11.6333 6.1066 13.2333 6.55993" stroke="#3992CC" stroke-miterlimit="10" stroke-linecap="round" stroke-linejoin="round"/>
</svg>
